{
  "accessors": [
    {
      "bufferView": 3,
      "componentType": 5126,
      "count": 244,
      "max": [
        0.45093032717704773,
        9.43379020690918,
        0.4362969398498535
      ],
      "min": [
        -0.40946513414382935,
        8.780837059020996,
        0.013005977496504784
      ],
      "type": "VEC3"
    },
    {
      "bufferView": 3,
      "byteOffset": 2928,
      "componentType": 5126,
      "count": 244,
      "max": [
        0.9848885536193848,
        0.9666212797164917,
        0.9543952941894531
      ],
      "min": [
        -0.9848926663398743,
        -0.9496427178382874,
        -0.9635034799575806
      ],
      "type": "VEC3"
    },
    {
      "bufferView": 2,
      "componentType": 5126,
      "count": 244,
      "max": [
        0.8508099913597107,
        1.1605000495910645
      ],
      "min": [
        0.5446199774742126,
        1.0277999639511108
      ],
      "type": "VEC2"
    },
    {
      "bufferView": 1,
      "componentType": 5125,
      "count": 1278,
      "type": "SCALAR"
    },
    {
      "bufferView": 3,
      "byteOffset": 5856,
      "componentType": 5126,
      "count": 3804,
      "max": [
        3.5626354217529297,
        9.855196952819824,
        0.9342979192733765
      ],
      "min": [
        -3.5211710929870605,
        -0.07769440114498138,
        -0.9290427565574646
      ],
      "type": "VEC3"
    },
    {
      "bufferView": 3,
      "byteOffset": 51504,
      "componentType": 5126,
      "count": 3804,
      "max": [
        0.9992499351501465,
        0.9862370491027832,
        0.9999886155128479
      ],
      "min": [
        -0.9992499351501465,
        -1.0,
        -0.9998620748519897
      ],
      "type": "VEC3"
    },
    {
      "bufferView": 2,
      "byteOffset": 1952,
      "componentType": 5126,
      "count": 3804,
      "max": [
        0.9572290182113647,
        1.9881600141525269
      ],
      "min": [
        0.008608000352978706,
        1.0207279920578003
      ],
      "type": "VEC2"
    },
    {
      "bufferView": 1,
      "byteOffset": 5112,
      "componentType": 5125,
      "count": 19578,
      "type": "SCALAR"
    },
    {
      "bufferView": 3,
      "byteOffset": 97152,
      "componentType": 5126,
      "count": 4,
      "max": [
        1.0,
        1.0,
        0.0
      ],
      "min": [
        -1.0,
        -1.0,
        0.0
      ],
      "type": "VEC3"
    },
    {
      "bufferView": 3,
      "byteOffset": 97200,
      "componentType": 5126,
      "count": 4,
      "max": [
        0.0,
        0.0,
        1.0
      ],
      "min": [
        0.0,
        0.0,
        1.0
      ],
      "type": "VEC3"
    },
    {
      "bufferView": 2,
      "byteOffset": 32384,
      "componentType": 5126,
      "count": 4,
      "max": [
        1.0,
        1.0
      ],
      "min": [
        0.0,
        0.0
      ],
      "type": "VEC2"
    },
    {
      "bufferView": 1,
      "byteOffset": 83424,
      "componentType": 5125,
      "count": 6,
      "type": "SCALAR"
    },
    {
      "bufferView": 5,
      "componentType": 5126,
      "count": 71,
      "max": [
        65.74051666259766,
        0.6349226236343384,
        0.6569067239761353,
        0.0,
        0.5308648347854614,
        65.74051666259766,
        0.6574055552482605,
        0.0,
        0.6574095487594604,
        0.6573038101196289,
        65.74051666259766,
        0.0,
        4.418677806854248,
        3.7536540031433105,
        3.924807548522949,
        1.0
      ],
      "min": [
        -0.6573057174682617,
        -0.6349226236343384,
        -0.6569065451622009,
        0.0,
        -0.5308647751808167,
        -0.653744101524353,
        -0.6003216505050659,
        0.0,
        -0.6574045419692993,
        -0.30680233240127563,
        -0.6557276248931885,
        0.0,
        -4.418678283691406,
        -5.73267936706543,
        -5.1396942138671875,
        1.0
      ],
      "type": "MAT4"
    },
    {
      "bufferView": 0,
      "componentType": 5123,
      "count": 244,
      "type": "VEC4"
    },
    {
      "bufferView": 4,
      "componentType": 5126,
      "count": 244,
      "max": [
        1.0,
        0.0,
        0.0,
        0.0
      ],
      "min": [
        1.0,
        0.0,
        0.0,
        0.0
      ],
      "type": "VEC4"
    },
    {
      "bufferView": 0,
      "byteOffset": 1952,
      "componentType": 5123,
      "count": 3804,
      "type": "VEC4"
    },
    {
      "bufferView": 4,
      "byteOffset": 3904,
      "componentType": 5126,
      "count": 3804,
      "max": [
        1.0,
        0.49861735105514526,
        0.2958272099494934,
        0.23763853311538696
      ],
      "min": [
        0.27546021342277527,
        0.0,
        0.0,
        0.0
      ],
      "type": "VEC4"
    }
  ],
  "asset": {
    "extras": {
      "author": "Ahad4940 (https://sketchfab.com/Ahad4940)",
      "license": "CC-BY-4.0 (http://creativecommons.org/licenses/by/4.0/)",
      "source": "https://sketchfab.com/3d-models/miles-morales-ff65aee8ba184d30887b7eb6ac22627b",
      "title": "Miles morales"
    },
    "generator": "Sketchfab-12.65.0",
    "version": "2.0"
  },
  "bufferViews": [
    {
      "buffer": 0,
      "byteLength": 32384,
      "byteStride": 8,
      "name": "shortBufferViews",
      "target": 34962
    },
    {
      "buffer": 0,
      "byteLength": 83448,
      "byteOffset": 32384,
      "name": "floatBufferViews",
      "target": 34963
    },
    {
      "buffer": 0,
      "byteLength": 32416,
      "byteOffset": 115832,
      "byteStride": 8,
      "name": "floatBufferViews",
      "target": 34962
    },
    {
      "buffer": 0,
      "byteLength": 97248,
      "byteOffset": 148248,
      "byteStride": 12,
      "name": "floatBufferViews",
      "target": 34962
    },
    {
      "buffer": 0,
      "byteLength": 64768,
      "byteOffset": 245496,
      "byteStride": 16,
      "name": "floatBufferViews",
      "target": 34962
    },
    {
      "buffer": 0,
      "byteLength": 4544,
      "byteOffset": 310264,
      "name": "floatBufferViews"
    }
  ],
  "buffers": [
    {
      "byteLength": 314808,
      "uri": "scene.bin"
    }
  ],
  "images": [
    {
      "uri": "textures/Material.001_baseColor.jpeg"
    }
  ],
  "materials": [
    {
      "doubleSided": true,
      "name": "Material.001",
      "pbrMetallicRoughness": {
        "baseColorTexture": {
          "index": 0
        },
        "roughnessFactor": 0.0
      }
    },
    {
      "doubleSided": true,
      "name": "Default",
      "pbrMetallicRoughness": {
        "baseColorTexture": {
          "index": 0
        },
        "roughnessFactor": 0.19809231073818334
      }
    },
    {
      "alphaMode": "BLEND",
      "doubleSided": true,
      "name": "Material",
      "pbrMetallicRoughness": {
        "baseColorFactor": [
          0.0,
          0.0,
          0.0,
          0.0
        ],
        "metallicFactor": 0.0
      }
    }
  ],
  "meshes": [
    {
      "name": "mesh0.dat.desirefx.me_.obj_Material.001_0",
      "primitives": [
        {
          "attributes": {
            "JOINTS_0": 13,
            "NORMAL": 1,
            "POSITION": 0,
            "TEXCOORD_0": 2,
            "TEXCOORD_1": 2,
            "WEIGHTS_0": 14
          },
          "indices": 3,
          "material": 0,
          "mode": 4
        }
      ]
    },
    {
      "name": "mesh7.dat.desirefx.me_.obj_Default_0",
      "primitives": [
        {
          "attributes": {
            "JOINTS_0": 15,
            "NORMAL": 5,
            "POSITION": 4,
            "TEXCOORD_0": 6,
            "TEXCOORD_1": 6,
            "WEIGHTS_0": 16
          },
          "indices": 7,
          "material": 1,
          "mode": 4
        }
      ]
    },
    {
      "name": "Plane_Material_0",
      "primitives": [
        {
          "attributes": {
            "NORMAL": 9,
            "POSITION": 8,
            "TEXCOORD_0": 10
          },
          "indices": 11,
          "material": 2,
          "mode": 4
        }
      ]
    }
  ],
  "nodes": [
    {
      "children": [
        1
      ],
      "matrix": [
        1.0,
        0.0,
        0.0,
        0.0,
        0.0,
        2.220446049250313e-16,
        -1.0,
        0.0,
        0.0,
        1.0,
        2.220446049250313e-16,
        0.0,
        0.0,
        0.0,
        0.0,
        1.0
      ],
      "name": "Sketchfab_model"
    },
    {
      "children": [
        2
      ],
      "matrix": [
        0.009999999776482582,
        0.0,
        0.0,
        0.0,
        0.0,
        0.0,
        0.009999999776482582,
        0.0,
        0.0,
        -0.009999999776482582,
        0.0,
        0.0,
        0.0,
        0.0,
        0.0,
        1.0
      ],
      "name": "c63018a2ffb444b296367658bed516a6.fbx"
    },
    {
      "children": [
        3,
        6,
        9,
        11,
        88
      ],
      "name": "RootNode"
    },
    {
      "children": [
        4
      ],
      "matrix": [
        93.30553350012684,
        -34.238282309277324,
        11.037093945732964,
        0.0,
        3.090036711781302,
        -22.939747820345445,
        -97.28422093566252,
        0.0,
        35.84032772417897,
        91.11261161029894,
        -20.346078594517046,
        0.0,
        -16.79652976989746,
        512.4066162109375,
        -385.1992492675781,
        1.0
      ],
      "name": "Point.001"
    },
    {
      "children": [
        5
      ],
      "matrix": [
        1.0,
        0.0,
        0.0,
        0.0,
        0.0,
        2.220446049250313e-16,
        1.0,
        0.0,
        0.0,
        -1.0,
        2.220446049250313e-16,
        0.0,
        0.0,
        0.0,
        0.0,
        1.0
      ],
      "name": "Object_4"
    },
    {
      "name": "Object_5"
    },
    {
      "children": [
        7
      ],
      "matrix": [
        95.03033643368961,
        21.730825925208837,
        -22.293605272121997,
        0.0,
        2.130660624277245,
        66.90117797420417,
        74.29463420037824,
        0.0,
        31.059524539477433,
        -71.07744732484225,
        63.113409170840015,
        0.0,
        -20.030418395996094,
        661.3973388671875,
        -1.6673535108566284,
        1.0
      ],
      "name": "Point"
    },
    {
      "children": [
        8
      ],
      "matrix": [
        1.0,
        0.0,
        0.0,
        0.0,
        0.0,
        2.220446049250313e-16,
        1.0,
        0.0,
        0.0,
        -1.0,
        2.220446049250313e-16,
        0.0,
        0.0,
        0.0,
        0.0,
        1.0
      ],
      "name": "Object_7"
    },
    {
      "name": "Object_8"
    },
    {
      "children": [
        10
      ],
      "matrix": [
        57.648415137930975,
        10.187356503705798,
        -81.07329724039933,
        0.0,
        -5.905179994998096,
        99.47973552138933,
        8.301269169296068,
        0.0,
        81.49717534008644,
        0.001974017341925538,
        57.95006822852293,
        0.0,
        -544.6467895507813,
        116.95690155029297,
        884.971435546875,
        1.0
      ],
      "name": "Camera"
    },
    {
      "name": "Object_10"
    },
    {
      "children": [
        12
      ],
      "matrix": [
        100.0,
        0.0,
        0.0,
        0.0,
        0.0,
        -1.629206793918314e-05,
        -99.99999999999868,
        0.0,
        0.0,
        99.99999999999868,
        -1.629206793918314e-05,
        0.0,
        0.0,
        0.0,
        0.0,
        1.0
      ],
      "name": "metarig"
    },
    {
      "children": [
        13,
        85,
        87,
        84,
        86
      ],
      "name": "Object_12"
    },
    {
      "children": [
        14
      ],
      "name": "_rootJoint"
    },
    {
      "children": [
        15,
        70,
        77
      ],
      "name": "spine_07",
      "rotation": [
        0.7064483761787415,
        -0.0037360272835940123,
        0.022526074200868607,
        0.7073961496353149
      ],
      "scale": [
        0.9999998807907104,
        0.9999999403953552,
        0.9999999403953552
      ],
      "translation": [
        0.012045256793498993,
        0.20236974954605103,
        3.4105069637298584
      ]
    },
    {
      "children": [
        16
      ],
      "name": "spine.001_08",
      "rotation": [
        0.076475128531456,
        -0.014656309969723225,
        -0.017509164288640022,
        0.9968100190162659
      ],
      "translation": [
        9.35206800889432e-10,
        0.32424771785736084,
        -1.4958579930279825e-09
      ]
    },
    {
      "children": [
        17
      ],
      "name": "spine.002_09",
      "rotation": [
        -0.09167961031198502,
        -2.1345601675104575e-10,
        -1.9539621476383218e-08,
        0.99578857421875
      ],
      "scale": [
        1.0,
        1.0,
        0.9999999403953552
      ],
      "translation": [
        1.3322676295501878e-14,
        0.3698933720588684,
        -4.470348358154297e-08
      ]
    },
    {
      "children": [
        18,
        22,
        46
      ],
      "name": "spine.003_010",
      "rotation": [
        -0.07480265200138092,
        -2.0267443525865368e-14,
        -1.783433845048421e-08,
        0.9971983432769775
      ],
      "translation": [
        -2.6645352591003757e-15,
        0.5756133198738098,
        1.8626447051417472e-09
      ]
    },
    {
      "children": [
        19
      ],
      "name": "spine.004_011",
      "rotation": [
        0.331794798374176,
        1.552653235744727e-14,
        7.910601595995104e-08,
        0.943351686000824
      ],
      "translation": [
        -5.10702591327572e-15,
        0.7311238646507263,
        -4.440892098500626e-16
      ]
    },
    {
      "children": [
        20
      ],
      "name": "spine.005_012",
      "rotation": [
        -0.04250394552946091,
        0.05634884536266327,
        -0.0010087251430377364,
        0.9975056052207947
      ],
      "scale": [
        0.9999999403953552,
        0.9999999403953552,
        1.0
      ],
      "translation": [
        -2.7977620220553945e-14,
        0.1438155472278595,
        2.9802322387695313e-08
      ]
    },
    {
      "children": [
        21
      ],
      "name": "head_013",
      "rotation": [
        -0.20308662950992584,
        -0.05487998574972153,
        -0.012822258286178112,
        0.9775375127792358
      ],
      "scale": [
        0.9999998807907104,
        1.0,
        0.9999999403953552
      ],
      "translation": [
        1.775333657860756e-08,
        0.2306165248155594,
        1.4364923117682338e-07
      ]
    },
    {
      "name": "head_end_0394",
      "rotation": [
        0.0,
        -3.308722450212111e-24,
        1.131055355270498e-24,
        1.0
      ],
      "translation": [
        0.0,
        0.6602215766906738,
        2.7755575615628914e-17
      ]
    },
    {
      "children": [
        23
      ],
      "name": "shoulder.R_014",
      "rotation": [
        -0.5081278681755066,
        0.3894186019897461,
        0.4676659107208252,
        0.6094651818275452
      ],
      "scale": [
        1.0,
        1.0000001192092896,
        1.0
      ],
      "translation": [
        -0.06092819571495056,
        0.46000608801841736,
        0.06465810537338257
      ]
    },
    {
      "children": [
        24
      ],
      "name": "upper_arm.R_015",
      "rotation": [
        -0.192521870136261,
        -0.6667819023132324,
        0.3612017333507538,
        0.6227925419807434
      ],
      "scale": [
        0.9999999403953552,
        1.0000001192092896,
        1.0000001192092896
      ],
      "translation": [
        0.037291042506694794,
        0.6201238632202148,
        0.09772531688213348
      ]
    },
    {
      "children": [
        25
      ],
      "name": "forearm.R_016",
      "rotation": [
        0.14232628047466278,
        -0.06179698184132576,
        -0.08045872300863266,
        0.984606921672821
      ],
      "scale": [
        1.0,
        1.0,
        1.0000001192092896
      ],
      "translation": [
        -5.587935447692871e-09,
        0.9631147384643555,
        -3.5390257835388184e-08
      ]
    },
    {
      "children": [
        26,
        30,
        34,
        38,
        42
      ],
      "name": "hand.R_017",
      "rotation": [
        -0.09550036489963531,
        0.03331734240055084,
        0.034152451902627945,
        0.9942852854728699
      ],
      "scale": [
        1.0000001192092896,
        1.0,
        1.0000001192092896
      ],
      "translation": [
        -1.695007085800171e-07,
        0.7661619186401367,
        4.470348358154297e-08
      ]
    },
    {
      "children": [
        27
      ],
      "name": "f_index.01.R_018",
      "rotation": [
        0.21269479393959045,
        -0.7043257355690002,
        -0.022281110286712646,
        0.6768971085548401
      ],
      "scale": [
        0.9999998211860657,
        0.9999998211860657,
        0.9999998807907104
      ],
      "translation": [
        -0.07244229316711426,
        0.32093504071235657,
        0.17823107540607452
      ]
    },
    {
      "children": [
        28
      ],
      "name": "f_index.02.R_019",
      "rotation": [
        0.18094933032989502,
        0.033857207745313644,
        -0.015945736318826675,
        0.9827802181243896
      ],
      "scale": [
        1.0,
        1.0000001192092896,
        1.0
      ],
      "translation": [
        2.9802322387695313e-08,
        0.17207418382167816,
        -1.8067657947540283e-07
      ]
    },
    {
      "children": [
        29
      ],
      "name": "f_index.03.R_020",
      "rotation": [
        0.1732678860425949,
        0.057259075343608856,
        0.019994275644421577,
        0.9830056428909302
      ],
      "scale": [
        0.9999999403953552,
        1.0,
        0.9999999403953552
      ],
      "translation": [
        1.6391277313232422e-07,
        0.11693274974822998,
        4.0978193283081055e-07
      ]
    },
    {
      "name": "f_index.03.R_end_0374",
      "rotation": [
        -1.734723475976807e-17,
        1.3877787807814457e-17,
        2.7755575615628914e-17,
        1.0
      ],
      "translation": [
        -1.1102230246251565e-16,
        0.12019878625869751,
        2.220446049250313e-16
      ]
    },
    {
      "children": [
        31
      ],
      "name": "thumb.01.R_021",
      "rotation": [
        -0.22709088027477264,
        0.8742570281028748,
        0.42810171842575073,
        0.028866956010460854
      ],
      "scale": [
        0.9999999403953552,
        1.000000238418579,
        0.9999999403953552
      ],
      "translation": [
        -0.06861116737127304,
        0.08625833690166473,
        0.17163854837417603
      ]
    },
    {
      "children": [
        32
      ],
      "name": "thumb.02.R_022",
      "rotation": [
        0.1613798588514328,
        0.009211606346070766,
        -0.05249273404479027,
        0.9854522943496704
      ],
      "scale": [
        1.0,
        0.9999999403953552,
        1.0
      ],
      "translation": [
        -3.5762786865234375e-07,
        0.16592827439308167,
        2.2351741790771484e-08
      ]
    },
    {
      "children": [
        33
      ],
      "name": "thumb.03.R_023",
      "rotation": [
        0.03770007565617561,
        -0.010409670881927013,
        0.01984366960823536,
        0.9990378022193909
      ],
      "scale": [
        0.9999999403953552,
        1.0,
        1.0
      ],
      "translation": [
        2.086162567138672e-07,
        0.12906770408153534,
        -2.384185791015625e-07
      ]
    },
    {
      "name": "thumb.03.R_end_0375",
      "rotation": [
        -5.551115123125783e-17,
        -2.7755575615628914e-17,
        1.3877787807814457e-17,
        1.0
      ],
      "translation": [
        0.0,
        0.07926829159259796,
        -1.1102230246251565e-16
      ]
    },
    {
      "children": [
        35
      ],
      "name": "f_middle.01.R_024",
      "rotation": [
        0.11975255608558655,
        -0.7108113169670105,
        0.06897933781147003,
        0.6896727085113525
      ],
      "scale": [
        0.9999998807907104,
        0.9999997615814209,
        0.9999998807907104
      ],
      "translation": [
        -0.04996940493583679,
        0.399058073759079,
        0.09876609593629837
      ]
    },
    {
      "children": [
        36
      ],
      "name": "f_middle.02.R_025",
      "rotation": [
        0.17190828919410706,
        0.04916931316256523,
        0.021048305556178093,
        0.9836600422859192
      ],
      "scale": [
        1.0,
        1.0,
        1.0000001192092896
      ],
      "translation": [
        3.3527612686157227e-08,
        0.16482171416282654,
        -1.1315569281578064e-07
      ]
    },
    {
      "children": [
        37
      ],
      "name": "f_middle.03.R_026",
      "rotation": [
        0.13873685896396637,
        0.022160593420267105,
        -0.0007497638580389321,
        0.9900810122489929
      ],
      "translation": [
        -1.862645149230957e-08,
        0.1177954226732254,
        1.4225952327251434e-07
      ]
    },
    {
      "name": "f_middle.03.R_end_0397",
      "rotation": [
        1.951563910473908e-18,
        8.673617379884035e-19,
        -1.692711865184094e-36,
        1.0
      ],
      "translation": [
        0.0,
        0.1615416705608368,
        4.440892098500626e-16
      ]
    },
    {
      "children": [
        39
      ],
      "name": "f_ring.01.R_027",
      "rotation": [
        0.11309048533439636,
        -0.6651726365089417,
        0.21853624284267426,
        0.704980731010437
      ],
      "scale": [
        1.0,
        0.9999998807907104,
        0.9999999403953552
      ],
      "translation": [
        -0.04971064627170563,
        0.4237633943557739,
        -0.002799488604068756
      ]
    },
    {
      "children": [
        40
      ],
      "name": "f_ring.02.R_028",
      "rotation": [
        0.08056913316249847,
        0.010906383395195007,
        0.06597663462162018,
        0.9945032596588135
      ],
      "scale": [
        1.0,
        1.0,
        0.9999999403953552
      ],
      "translation": [
        -1.3877787807814457e-17,
        0.1551082879304886,
        2.023298293352127e-07
      ]
    },
    {
      "children": [
        41
      ],
      "name": "f_ring.03.R_029",
      "rotation": [
        0.15227170288562775,
        0.025549620389938354,
        -0.022122550755739212,
        0.9877606630325317
      ],
      "scale": [
        0.9999999403953552,
        1.0,
        0.9999999403953552
      ],
      "translation": [
        -7.450580596923828e-09,
        0.1044861301779747,
        2.551823854446411e-07
      ]
    },
    {
      "name": "f_ring.03.R_end_0398",
      "rotation": [
        4.336808689942018e-18,
        6.018531076210112e-35,
        1.3877787807814457e-17,
        1.0
      ],
      "translation": [
        5.551115123125783e-17,
        0.08340386301279068,
        -4.440892098500626e-16
      ]
    },
    {
      "children": [
        43
      ],
      "name": "f_pinky.01.R_030",
      "rotation": [
        0.0007961108349263668,
        -0.6647146344184875,
        0.30778461694717407,
        0.680751383304596
      ],
      "scale": [
        0.9999998211860657,
        0.9999997019767761,
        0.9999998807907104
      ],
      "translation": [
        -0.04767339676618576,
        0.39113566279411316,
        -0.08310217410326004
      ]
    },
    {
      "children": [
        44
      ],
      "name": "f_pinky.02.R_031",
      "rotation": [
        0.16866661608219147,
        0.00315616256557405,
        0.10459894686937332,
        0.9801024794578552
      ],
      "scale": [
        0.9999999403953552,
        0.9999998807907104,
        0.9999999403953552
      ],
      "translation": [
        2.9802322387695313e-08,
        0.10049699246883392,
        -5.671754479408264e-07
      ]
    },
    {
      "children": [
        45
      ],
      "name": "f_pinky.03.R_032",
      "rotation": [
        0.04733704403042793,
        -0.08569540083408356,
        -0.009299751371145248,
        0.9951527714729309
      ],
      "scale": [
        1.0,
        1.0000001192092896,
        1.0000001192092896
      ],
      "translation": [
        5.960464477539063e-08,
        0.07393118739128113,
        7.82310962677002e-08
      ]
    },
    {
      "name": "f_pinky.03.R_end_0399",
      "rotation": [
        -1.3877787807814457e-17,
        -6.938893903907228e-18,
        -2.7755575615628914e-17,
        1.0
      ],
      "translation": [
        0.0,
        0.09385781735181808,
        -4.440892098500626e-16
      ]
    },
    {
      "children": [
        47
      ],
      "name": "shoulder.L_033",
      "rotation": [
        -0.508127748966217,
        -0.38941866159439087,
        -0.46766605973243713,
        0.6094651222229004
      ],
      "scale": [
        1.0000001192092896,
        1.0000001192092896,
        1.0
      ],
      "translation": [
        0.06092817336320877,
        0.46000608801841736,
        0.06465813517570496
      ]
    },
    {
      "children": [
        48
      ],
      "name": "upper_arm.L_034",
      "rotation": [
        -0.19252188503742218,
        0.6667819023132324,
        -0.3612017333507538,
        0.622792661190033
      ],
      "scale": [
        1.0,
        1.0000001192092896,
        1.0000001192092896
      ],
      "translation": [
        -0.037291042506694794,
        0.6201238036155701,
        0.09772525727748871
      ]
    },
    {
      "children": [
        49
      ],
      "name": "forearm.L_035",
      "rotation": [
        0.14232628047466278,
        0.061797019094228745,
        0.08045869320631027,
        0.984606921672821
      ],
      "scale": [
        1.0,
        1.0,
        1.0000001192092896
      ],
      "translation": [
        1.648440957069397e-07,
        0.9631145000457764,
        3.725290298461914e-08
      ]
    },
    {
      "children": [
        50,
        54,
        58,
        62,
        66
      ],
      "name": "hand.L_036",
      "rotation": [
        -0.09550036489963531,
        -0.033317357301712036,
        -0.0341525599360466,
        0.9942852854728699
      ],
      "scale": [
        1.0,
        0.9999999403953552,
        1.0
      ],
      "translation": [
        1.6577541828155518e-07,
        0.7661617398262024,
        -2.9802322387695313e-08
      ]
    },
    {
      "children": [
        51
      ],
      "name": "f_index.01.L_037",
      "rotation": [
        0.2126946747303009,
        0.7043257355690002,
        0.02228115126490593,
        0.6768971681594849
      ],
      "scale": [
        1.0,
        1.0000001192092896,
        1.0
      ],
      "translation": [
        0.0724419355392456,
        0.32093504071235657,
        0.17823107540607452
      ]
    },
    {
      "children": [
        52
      ],
      "name": "f_index.02.L_038",
      "rotation": [
        0.18094933032989502,
        -0.033857204020023346,
        0.01594572141766548,
        0.9827802181243896
      ],
      "scale": [
        1.0000001192092896,
        0.9999999403953552,
        1.0
      ],
      "translation": [
        -1.341104507446289e-07,
        0.17207416892051697,
        -3.03611159324646e-07
      ]
    },
    {
      "children": [
        53
      ],
      "name": "f_index.03.L_039",
      "rotation": [
        0.1732679307460785,
        -0.057259052991867065,
        -0.019994257017970085,
        0.9830055236816406
      ],
      "scale": [
        0.9999998807907104,
        1.0000001192092896,
        1.0
      ],
      "translation": [
        -1.1920928955078125e-07,
        0.11693237721920013,
        -6.705522537231445e-08
      ]
    },
    {
      "name": "f_index.03.L_end_0400",
      "rotation": [
        3.469446951953614e-18,
        0.0,
        0.0,
        1.0
      ],
      "translation": [
        1.1102230246251565e-16,
        0.12019878625869751,
        -2.220446049250313e-16
      ]
    },
    {
      "children": [
        55
      ],
      "name": "thumb.01.L_041",
      "rotation": [
        0.22709278762340546,
        0.8742566704750061,
        0.42810145020484924,
        -0.02886742167174816
      ],
      "scale": [
        1.0,
        1.0000001192092896,
        1.0
      ],
      "translation": [
        0.06861069053411484,
        0.08625811338424683,
        0.1716385781764984
      ]
    },
    {
      "children": [
        56
      ],
      "name": "thumb.02.L_042",
      "rotation": [
        0.16137970983982086,
        -0.009211570024490356,
        0.05249270051717758,
        0.9854522943496704
      ],
      "scale": [
        0.9999999403953552,
        1.0,
        1.0
      ],
      "translation": [
        1.862645149230957e-08,
        0.16592851281166077,
        8.940696716308594e-08
      ]
    },
    {
      "children": [
        57
      ],
      "name": "thumb.03.L_043",
      "rotation": [
        0.037700116634368896,
        0.010409633629024029,
        -0.019843708723783493,
        0.9990378022193909
      ],
      "scale": [
        0.9999999403953552,
        1.0000001192092896,
        1.0
      ],
      "translation": [
        -3.0547380447387695e-07,
        0.12906761467456818,
        -2.5331974029541016e-07
      ]
    },
    {
      "name": "thumb.03.L_end_0401",
      "rotation": [
        -5.551115123125783e-17,
        5.551115123125783e-17,
        5.551115123125783e-17,
        1.0
      ],
      "translation": [
        0.0,
        0.07926829159259796,
        0.0
      ]
    },
    {
      "children": [
        59
      ],
      "name": "f_middle.01.L_044",
      "rotation": [
        0.1197524443268776,
        0.7108113765716553,
        -0.06897930055856705,
        0.6896727681159973
      ],
      "scale": [
        0.9999999403953552,
        0.9999999403953552,
        1.0
      ],
      "translation": [
        0.04996904730796814,
        0.3990578353404999,
        0.09876608103513718
      ]
    },
    {
      "children": [
        60
      ],
      "name": "f_middle.02.L_045",
      "rotation": [
        0.17190825939178467,
        -0.049169279634952545,
        -0.021048301830887794,
        0.9836599826812744
      ],
      "scale": [
        1.0,
        1.0,
        1.0000001192092896
      ],
      "translation": [
        -3.725290298461914e-08,
        0.16482172906398773,
        2.3748725652694702e-07
      ]
    },
    {
      "children": [
        61
      ],
      "name": "f_middle.03.L_046",
      "rotation": [
        0.13873682916164398,
        -0.02216060645878315,
        0.0007497795741073787,
        0.9900810122489929
      ],
      "scale": [
        1.0,
        1.0000001192092896,
        1.0000001192092896
      ],
      "translation": [
        1.1175870895385742e-08,
        0.11779560893774033,
        1.9883736968040466e-07
      ]
    },
    {
      "name": "f_middle.03.L_end_0402",
      "rotation": [
        -4.445228907190568e-18,
        -3.0844971765576824e-35,
        6.938893903907228e-18,
        1.0
      ],
      "translation": [
        -5.551115123125783e-17,
        0.1615416705608368,
        4.440892098500626e-16
      ]
    },
    {
      "children": [
        63
      ],
      "name": "f_ring.01.L_047",
      "rotation": [
        0.11309036612510681,
        0.6651726365089417,
        -0.2185361236333847,
        0.7049807906150818
      ],
      "scale": [
        0.9999999403953552,
        0.9999999403953552,
        1.0
      ],
      "translation": [
        0.049710292369127274,
        0.42376330494880676,
        -0.002799481153488159
      ]
    },
    {
      "children": [
        64
      ],
      "name": "f_ring.02.L_048",
      "rotation": [
        0.08056904375553131,
        -0.010906372219324112,
        -0.06597660481929779,
        0.994503378868103
      ],
      "scale": [
        1.0,
        1.0,
        0.9999998807907104
      ],
      "translation": [
        0.0,
        0.1551084667444229,
        -1.5436671674251556e-07
      ]
    },
    {
      "children": [
        65
      ],
      "name": "f_ring.03.L_049",
      "rotation": [
        0.15227170288562775,
        -0.0255496334284544,
        0.022122547030448914,
        0.9877606630325317
      ],
      "scale": [
        0.9999999403953552,
        0.9999999403953552,
        0.9999998807907104
      ],
      "translation": [
        6.705522537231445e-08,
        0.10448608547449112,
        2.421438694000244e-08
      ]
    },
    {
      "name": "f_ring.03.L_end_0403",
      "rotation": [
        -5.204170427930421e-18,
        -7.222237291452134e-35,
        1.3877787807814457e-17,
        1.0
      ],
      "translation": [
        -2.7755575615628914e-17,
        0.08340386301279068,
        4.440892098500626e-16
      ]
    },
    {
      "children": [
        67
      ],
      "name": "f_pinky.01.L_050",
      "rotation": [
        0.0007959913345985115,
        0.6647145748138428,
        -0.3077845871448517,
        0.6807514429092407
      ],
      "scale": [
        1.0,
        1.0,
        1.0000001192092896
      ],
      "translation": [
        0.047672808170318604,
        0.3911355435848236,
        -0.08310217410326004
      ]
    },
    {
      "children": [
        68
      ],
      "name": "f_pinky.02.L_051",
      "rotation": [
        0.16866663098335266,
        -0.003156126942485571,
        -0.10459886491298676,
        0.9801024794578552
      ],
      "scale": [
        0.9999998807907104,
        1.0,
        1.0
      ],
      "translation": [
        -1.4901161193847656e-08,
        0.10049707442522049,
        1.6670674085617065e-07
      ]
    },
    {
      "children": [
        69
      ],
      "name": "f_pinky.03.L_052",
      "rotation": [
        0.04733702912926674,
        0.08569537103176117,
        0.009299690835177898,
        0.9951527714729309
      ],
      "scale": [
        1.0,
        0.9999999403953552,
        1.0
      ],
      "translation": [
        -1.6391277313232422e-07,
        0.07393157482147217,
        1.043081283569336e-07
      ]
    },
    {
      "name": "f_pinky.03.L_end_0404",
      "rotation": [
        -3.469446951953614e-18,
        -0.0,
        0.0,
        1.0
      ],
      "translation": [
        0.0,
        0.09385781735181808,
        0.0
      ]
    },
    {
      "children": [
        71
      ],
      "name": "thigh.R_053",
      "rotation": [
        0.995999813079834,
        -0.07916616648435593,
        0.019157424569129944,
        -0.036746151745319366
      ],
      "scale": [
        1.0000040531158447,
        1.000000238418579,
        1.0000009536743164
      ],
      "translation": [
        -0.34152427315711975,
        -0.033261772245168686,
        0.06048018857836723
      ]
    },
    {
      "children": [
        72
      ],
      "name": "shin.R_054",
      "rotation": [
        0.010791510343551636,
        -0.013356424868106842,
        -0.036101922392845154,
        0.9992005825042725
      ],
      "scale": [
        1.0,
        1.0,
        0.9999998807907104
      ],
      "translation": [
        1.862645149230957e-09,
        1.4748928546905518,
        -5.541369318962097e-08
      ]
    },
    {
      "children": [
        73,
        75
      ],
      "name": "foot.R_055",
      "rotation": [
        -0.5782713890075684,
        0.07391373813152313,
        0.06026097759604454,
        0.8102515339851379
      ],
      "scale": [
        1.0,
        1.0000001192092896,
        1.0
      ],
      "translation": [
        5.168840289115906e-08,
        1.608870506286621,
        2.421438694000244e-08
      ]
    },
    {
      "children": [
        74
      ],
      "name": "toe.R_056",
      "rotation": [
        0.08447585999965668,
        0.9743948578834534,
        -0.2072356939315796,
        -0.02172238565981388
      ],
      "scale": [
        0.9999999403953552,
        0.9999997615814209,
        0.9999999403953552
      ],
      "translation": [
        -3.818422555923462e-08,
        0.5698909759521484,
        -3.190001507391571e-08
      ]
    },
    {
      "name": "toe.R_end_0405",
      "rotation": [
        1.0587911840678754e-22,
        2.211880957966796e-21,
        -1.734723475976807e-18,
        1.0
      ],
      "translation": [
        1.1102230246251565e-16,
        0.5075272917747498,
        0.0
      ]
    },
    {
      "children": [
        76
      ],
      "name": "heel.02.R_057",
      "rotation": [
        -0.622521698474884,
        0.7543528079986572,
        -0.13262660801410675,
        -0.16071347892284393
      ],
      "scale": [
        0.9999998807907104,
        0.9999999403953552,
        0.9999998807907104
      ],
      "translation": [
        0.2122800499200821,
        0.011775974184274673,
        0.22361017763614655
      ]
    },
    {
      "name": "heel.02.R_end_0406",
      "rotation": [
        1.2766988883503229e-18,
        0.0,
        0.0,
        1.0
      ],
      "translation": [
        0.0,
        0.2663527727127075,
        0.0
      ]
    },
    {
      "children": [
        78
      ],
      "name": "thigh.L_058",
      "rotation": [
        0.9984166026115417,
        0.04291320964694023,
        0.0086677772924304,
        -0.035321857780218124
      ],
      "scale": [
        0.99998939037323,
        0.9999997615814209,
        0.9999931454658508
      ],
      "translation": [
        0.3103593587875366,
        -0.05750344321131706,
        0.07780009508132935
      ]
    },
    {
      "children": [
        79
      ],
      "name": "shin.L_059",
      "rotation": [
        0.010792332701385021,
        0.013356506824493408,
        0.03610246628522873,
        0.9992006421089172
      ],
      "scale": [
        0.9999999403953552,
        0.9999998807907104,
        0.9999999403953552
      ],
      "translation": [
        4.44706529378891e-08,
        1.47489333152771,
        1.3969838619232178e-08
      ]
    },
    {
      "children": [
        80,
        82
      ],
      "name": "foot.L_060",
      "rotation": [
        -0.5782740116119385,
        -0.07391298562288284,
        -0.060261934995651245,
        0.8102496862411499
      ],
      "scale": [
        1.0000001192092896,
        0.9999999403953552,
        1.0
      ],
      "translation": [
        8.055940270423889e-08,
        1.6088714599609375,
        4.7497451305389404e-08
      ]
    },
    {
      "children": [
        81
      ],
      "name": "toe.L_040",
      "rotation": [
        -0.0844760313630104,
        0.9743952751159668,
        -0.20723365247249603,
        0.02172248065471649
      ],
      "scale": [
        0.9999999403953552,
        0.9999997019767761,
        0.9999999403953552
      ],
      "translation": [
        -2.60770320892334e-08,
        0.5698960423469543,
        4.712546797236428e-09
      ]
    },
    {
      "name": "toe.L_end_0407",
      "rotation": [
        -4.235164736271502e-22,
        1.5787569171187086e-20,
        -1.734723475976807e-18,
        1.0
      ],
      "translation": [
        -1.1102230246251565e-16,
        0.5075272917747498,
        0.0
      ]
    },
    {
      "children": [
        83
      ],
      "name": "heel.02.L_062",
      "rotation": [
        0.6225149035453796,
        0.754359781742096,
        -0.1326255351305008,
        0.1607085019350052
      ],
      "scale": [
        1.0000001192092896,
        1.0,
        1.0
      ],
      "translation": [
        -0.21228280663490295,
        0.011769905686378479,
        0.22361281514167786
      ]
    },
    {
      "name": "heel.02.L_end_0408",
      "rotation": [
        -4.748683113435367e-19,
        -4.022287111997955e-40,
        8.470329472543003e-22,
        1.0
      ],
      "translation": [
        0.0,
        0.2663527727127075,
        0.0
      ]
    },
    {
      "matrix": [
        65.74051978943407,
        2.501397107224079e-07,
        -2.801342142699781e-07,
        0.0,
        -2.501396581718957e-07,
        65.7405179723575,
        1.0709777050976754e-05,
        0.0,
        2.8013424440025726e-07,
        -1.070977693992091e-05,
        65.74051729719908,
        0.0,
        1.362944455151613,
        -4.62690437750075,
        -3.116478616504992e-06,
        1.0
      ],
      "name": "Object_84"
    },
    {
      "mesh": 0,
      "name": "Object_85",
      "skin": 0
    },
    {
      "matrix": [
        65.74051978943407,
        2.501397107224079e-07,
        -2.801342142699781e-07,
        0.0,
        -2.501396581718957e-07,
        65.7405179723575,
        1.0709777050976754e-05,
        0.0,
        2.8013424440025726e-07,
        -1.070977693992091e-05,
        65.74051729719908,
        0.0,
        1.362944455151613,
        -4.62690437750075,
        -3.116478616504992e-06,
        1.0
      ],
      "name": "Object_86"
    },
    {
      "mesh": 1,
      "name": "Object_87",
      "skin": 0
    },
    {
      "children": [
        89
      ],
      "matrix": [
        1507.988525390625,
        0.0,
        0.0,
        0.0,
        0.0,
        -0.00024568251507172664,
        -1507.988525390605,
        0.0,
        0.0,
        1507.988525390605,
        -0.00024568251507172664,
        0.0,
        0.0,
        0.0,
        0.0,
        1.0
      ],
      "name": "Plane"
    },
    {
      "mesh": 2,
      "name": "Plane_Material_0"
    }
  ],
  "samplers": [
    {
      "magFilter": 9729,
      "minFilter": 9987,
      "wrapS": 10497,
      "wrapT": 10497
    }
  ],
  "scene": 0,
  "scenes": [
    {
      "name": "Sketchfab_Scene",
      "nodes": [
        0
      ]
    }
  ],
  "skins": [
    {
      "inverseBindMatrices": 12,
      "joints": [
        13,
        14,
        15,
        16,
        17,
        18,
        19,
        20,
        21,
        22,
        23,
        24,
        25,
        26,
        27,
        28,
        29,
        30,
        31,
        32,
        33,
        34,
        35,
        36,
        37,
        38,
        39,
        40,
        41,
        42,
        43,
        44,
        45,
        46,
        47,
        48,
        49,
        50,
        51,
        52,
        53,
        54,
        55,
        56,
        57,
        58,
        59,
        60,
        61,
        62,
        63,
        64,
        65,
        66,
        67,
        68,
        69,
        70,
        71,
        72,
        73,
        74,
        75,
        76,
        77,
        78,
        79,
        80,
        81,
        82,
        83
      ],
      "skeleton": 13
    }
  ],
  "textures": [
    {
      "sampler": 0,
      "source": 0
    }
  ]
}
